<mxfile host="app.diagrams.net" modified="2020-06-11T10:41:45.894Z" agent="5.0 (Windows NT 10.0; Win64; x64) AppleWebKit/537.36 (KHTML, like Gecko) Chrome/83.0.4103.97 Safari/537.36" etag="XeNB57eqy-7w8im2uKRS" version="13.2.1" type="github">
  <diagram id="R6gZRPhrKNKfsel5mfTR" name="Page-1">
    <mxGraphModel dx="1422" dy="762" grid="1" gridSize="10" guides="1" tooltips="1" connect="1" arrows="1" fold="1" page="1" pageScale="1" pageWidth="850" pageHeight="1100" math="0" shadow="0" extFonts="GT Walsheim^https://docs.kontent.ai/fonts/GT-Walsheim-Regular.woff">
      <root>
        <mxCell id="0" />
        <mxCell id="1" parent="0" />
        <mxCell id="PjWOHpHIm77XOdcT1b0L-11" style="edgeStyle=orthogonalEdgeStyle;rounded=0;orthogonalLoop=1;jettySize=auto;html=1;entryX=0;entryY=0.5;entryDx=0;entryDy=0;startArrow=classic;startFill=1;fontFamily=GT Walsheim;fontStyle=0;fontSize=14;" parent="1" source="PjWOHpHIm77XOdcT1b0L-1" target="PjWOHpHIm77XOdcT1b0L-2" edge="1">
          <mxGeometry relative="1" as="geometry" />
        </mxCell>
        <mxCell id="PjWOHpHIm77XOdcT1b0L-12" style="edgeStyle=orthogonalEdgeStyle;rounded=0;orthogonalLoop=1;jettySize=auto;html=1;entryX=0.25;entryY=0;entryDx=0;entryDy=0;startArrow=classic;startFill=1;endArrow=none;endFill=0;fontFamily=GT Walsheim;fontStyle=0;fontSize=14;" parent="1" source="PjWOHpHIm77XOdcT1b0L-1" target="PjWOHpHIm77XOdcT1b0L-3" edge="1">
          <mxGeometry relative="1" as="geometry" />
        </mxCell>
        <mxCell id="PjWOHpHIm77XOdcT1b0L-1" value="To do" style="rounded=1;whiteSpace=wrap;html=1;fillColor=#F05A22;strokeColor=none;fontStyle=0;perimeterSpacing=0;shadow=0;glass=0;comic=0;strokeWidth=2;fontFamily=GT Walsheim;fontSize=14;fontColor=#FFFFFF;" parent="1" vertex="1">
          <mxGeometry x="10" y="10" width="110" height="40" as="geometry" />
        </mxCell>
        <mxCell id="PjWOHpHIm77XOdcT1b0L-13" style="edgeStyle=orthogonalEdgeStyle;rounded=0;orthogonalLoop=1;jettySize=auto;html=1;entryX=0.75;entryY=0;entryDx=0;entryDy=0;startArrow=classic;startFill=1;endArrow=classic;endFill=1;fontFamily=GT Walsheim;fontStyle=0;fontSize=14;" parent="1" source="PjWOHpHIm77XOdcT1b0L-2" target="PjWOHpHIm77XOdcT1b0L-3" edge="1">
          <mxGeometry relative="1" as="geometry" />
        </mxCell>
        <mxCell id="PjWOHpHIm77XOdcT1b0L-2" value="In progress" style="rounded=1;whiteSpace=wrap;html=1;fillColor=none;strokeColor=#000000;fontStyle=0;fontFamily=GT Walsheim;fontSize=14;strokeWidth=2;" parent="1" vertex="1">
          <mxGeometry x="160" y="10" width="110" height="40" as="geometry" />
        </mxCell>
        <mxCell id="PjWOHpHIm77XOdcT1b0L-14" style="edgeStyle=orthogonalEdgeStyle;rounded=0;orthogonalLoop=1;jettySize=auto;html=1;entryX=0;entryY=0.5;entryDx=0;entryDy=0;startArrow=none;startFill=0;endArrow=classic;endFill=1;fontFamily=GT Walsheim;fontStyle=0;fontSize=14;" parent="1" source="PjWOHpHIm77XOdcT1b0L-3" target="PjWOHpHIm77XOdcT1b0L-4" edge="1">
          <mxGeometry relative="1" as="geometry" />
        </mxCell>
        <mxCell id="PjWOHpHIm77XOdcT1b0L-15" style="edgeStyle=orthogonalEdgeStyle;rounded=0;orthogonalLoop=1;jettySize=auto;html=1;entryX=0.25;entryY=1;entryDx=0;entryDy=0;startArrow=none;startFill=0;endArrow=classic;endFill=1;fontFamily=GT Walsheim;fontStyle=0;fontSize=14;" parent="1" target="PjWOHpHIm77XOdcT1b0L-5" edge="1">
          <mxGeometry relative="1" as="geometry">
            <mxPoint x="200" y="100" as="sourcePoint" />
            <Array as="points">
              <mxPoint x="230" y="100" />
              <mxPoint x="230" y="70" />
              <mxPoint x="338" y="70" />
            </Array>
          </mxGeometry>
        </mxCell>
        <mxCell id="PjWOHpHIm77XOdcT1b0L-3" value="In review" style="rounded=1;whiteSpace=wrap;html=1;fillColor=none;strokeColor=#000000;fontStyle=0;fontFamily=GT Walsheim;fontSize=14;strokeWidth=2;" parent="1" vertex="1">
          <mxGeometry x="90" y="90" width="110" height="40" as="geometry" />
        </mxCell>
        <mxCell id="PjWOHpHIm77XOdcT1b0L-17" style="edgeStyle=orthogonalEdgeStyle;rounded=0;orthogonalLoop=1;jettySize=auto;html=1;entryX=0.25;entryY=1;entryDx=0;entryDy=0;startArrow=none;startFill=0;endArrow=classic;endFill=1;fontFamily=GT Walsheim;fontStyle=0;fontSize=14;" parent="1" source="PjWOHpHIm77XOdcT1b0L-4" target="PjWOHpHIm77XOdcT1b0L-1" edge="1">
          <mxGeometry relative="1" as="geometry">
            <Array as="points">
              <mxPoint x="305" y="150" />
              <mxPoint x="38" y="150" />
            </Array>
          </mxGeometry>
        </mxCell>
        <mxCell id="PjWOHpHIm77XOdcT1b0L-18" style="edgeStyle=orthogonalEdgeStyle;rounded=0;orthogonalLoop=1;jettySize=auto;html=1;entryX=0.5;entryY=1;entryDx=0;entryDy=0;startArrow=none;startFill=0;endArrow=classic;endFill=1;fontFamily=GT Walsheim;fontStyle=0;fontSize=14;" parent="1" source="PjWOHpHIm77XOdcT1b0L-4" target="PjWOHpHIm77XOdcT1b0L-5" edge="1">
          <mxGeometry relative="1" as="geometry">
            <Array as="points">
              <mxPoint x="305" y="80" />
              <mxPoint x="365" y="80" />
            </Array>
          </mxGeometry>
        </mxCell>
        <mxCell id="PjWOHpHIm77XOdcT1b0L-19" style="edgeStyle=orthogonalEdgeStyle;rounded=0;orthogonalLoop=1;jettySize=auto;html=1;entryX=0;entryY=0.5;entryDx=0;entryDy=0;startArrow=none;startFill=0;endArrow=classic;endFill=1;fontFamily=GT Walsheim;fontStyle=0;fontSize=14;exitX=0.75;exitY=1;exitDx=0;exitDy=0;" parent="1" source="PjWOHpHIm77XOdcT1b0L-5" target="PjWOHpHIm77XOdcT1b0L-6" edge="1">
          <mxGeometry relative="1" as="geometry">
            <Array as="points">
              <mxPoint x="393" y="110" />
            </Array>
          </mxGeometry>
        </mxCell>
        <mxCell id="PjWOHpHIm77XOdcT1b0L-4" value="To translate" style="rounded=1;whiteSpace=wrap;html=1;fillColor=none;strokeColor=#000000;fontStyle=0;fontFamily=GT Walsheim;fontSize=14;strokeWidth=2;" parent="1" vertex="1">
          <mxGeometry x="250" y="90" width="110" height="40" as="geometry" />
        </mxCell>
        <mxCell id="PjWOHpHIm77XOdcT1b0L-5" value="Ready for publishing" style="rounded=1;whiteSpace=wrap;html=1;fillColor=none;strokeColor=#000000;fontStyle=0;fontFamily=GT Walsheim;fontSize=14;strokeWidth=2;" parent="1" vertex="1">
          <mxGeometry x="310" y="10" width="110" height="40" as="geometry" />
        </mxCell>
        <mxCell id="PjWOHpHIm77XOdcT1b0L-6" value="Scheduled/&lt;br style=&quot;font-size: 14px;&quot;&gt;/Published" style="rounded=1;whiteSpace=wrap;html=1;fillColor=#F05A22;strokeColor=none;fontStyle=0;strokeWidth=2;fontFamily=GT Walsheim;fontSize=14;fontColor=#FFFFFF;" parent="1" vertex="1">
          <mxGeometry x="410" y="90" width="110" height="40" as="geometry" />
        </mxCell>
        <mxCell id="PjWOHpHIm77XOdcT1b0L-16" value="" style="group;fontFamily=GT Walsheim;fontStyle=0;fontSize=14;" parent="1" vertex="1" connectable="0">
          <mxGeometry x="450" y="10" width="140" height="40" as="geometry" />
        </mxCell>
        <mxCell id="PjWOHpHIm77XOdcT1b0L-7" value="Archived" style="rounded=1;whiteSpace=wrap;html=1;fillColor=#F05A22;strokeColor=none;fontStyle=0;strokeWidth=2;fontFamily=GT Walsheim;fontSize=14;fontColor=#FFFFFF;" parent="PjWOHpHIm77XOdcT1b0L-16" vertex="1">
          <mxGeometry x="30" width="110" height="40" as="geometry" />
        </mxCell>
        <mxCell id="PjWOHpHIm77XOdcT1b0L-8" style="edgeStyle=orthogonalEdgeStyle;rounded=0;orthogonalLoop=1;jettySize=auto;html=1;entryX=0;entryY=0.5;entryDx=0;entryDy=0;fontFamily=GT Walsheim;fontStyle=0;fontSize=14;" parent="PjWOHpHIm77XOdcT1b0L-16" target="PjWOHpHIm77XOdcT1b0L-7" edge="1">
          <mxGeometry relative="1" as="geometry">
            <mxPoint y="20" as="sourcePoint" />
          </mxGeometry>
        </mxCell>
        <mxCell id="PjWOHpHIm77XOdcT1b0L-9" value="All" style="edgeLabel;html=1;align=center;verticalAlign=middle;resizable=0;points=[];fontFamily=GT Walsheim;fontStyle=0;fontSize=14;" parent="PjWOHpHIm77XOdcT1b0L-8" vertex="1" connectable="0">
          <mxGeometry x="0.0065" y="3" relative="1" as="geometry">
            <mxPoint x="-5" y="13" as="offset" />
          </mxGeometry>
        </mxCell>
      </root>
    </mxGraphModel>
  </diagram>
</mxfile>
